<svg id="Capa_1" data-name="Capa 1" xmlns="http://www.w3.org/2000/svg" viewBox="0 0 612 517.85"><defs><style>.cls-1{fill:#43a6e8;}</style></defs><path class="cls-1" d="M306,541.39a235.27,235.27,0,0,1-203.47-117H75.68A258.91,258.91,0,0,0,306,564.92c135.06,0,246-103.43,257.86-235.38H612l-58.85-70.62-58.84,70.62h45.92C528.41,448.48,428.05,541.39,306,541.39Z" transform="translate(0 -47.08)"/><path class="cls-1" d="M306,47.08c-126.92,0-232.51,91.33-254.66,211.84H0l58.85,70.62,58.84-70.62H75.32C97.14,151.49,192.12,70.61,306,70.61a235,235,0,0,1,188.1,93.85h28.76A258.74,258.74,0,0,0,306,47.08Z" transform="translate(0 -47.08)"/></svg>