<?xml version="1.0" encoding="utf-8"?>
<!-- Generator: Adobe Illustrator 22.1.0, SVG Export Plug-In . SVG Version: 6.00 Build 0)  -->
<svg version="1.1" id="Capa_1" xmlns="http://www.w3.org/2000/svg" xmlns:xlink="http://www.w3.org/1999/xlink" x="0px" y="0px"
	 viewBox="0 0 500 300" style="enable-background:new 0 0 500 300;" xml:space="preserve">
<style type="text/css">
	.st0{fill:#FFFFFF;}
</style>
<path class="st0" d="M473.7,146.3c-13.6-13.6-30.6-22.3-48.9-25.2c-6.6-43-43-76.1-86.8-76.1c-16.5,0-32.4,4.7-46.1,13.4
	c-8.5-14.6-20-27.2-33.8-37C238.4,7.4,215.4,0,191.4,0C126.8,0,74.2,53.8,74.2,120c0,0.4,0,0.8,0,1.2c-18,3-34.6,11.7-47.9,25
	C9.3,163.3,0,186,0,210s9.3,46.7,26.3,63.7C43.2,290.7,65.4,300,88.9,300h322.3c23.5,0,45.7-9.3,62.5-26.3
	c17-17.1,26.3-39.7,26.3-63.7S490.7,163.3,473.7,146.3z"/>
</svg>
