<svg id="Слой_1" data-name="Слой 1" xmlns="http://www.w3.org/2000/svg" viewBox="0 0 332.02 332.02"><defs><style>.cls-1{fill:#fcc00d;}.cls-2{fill:#fff;}</style></defs><circle class="cls-1" cx="166.01" cy="166.01" r="166.01"/><text x="-89.99" y="-89.99"/><path class="cls-2" d="M173.7,321H204v26a4.18,4.18,0,0,0,4.34,4.33H231a4.27,4.27,0,0,0,3-1.22,4.1,4.1,0,0,0,1.28-3.11V321h68.36a4.18,4.18,0,0,0,4.33-4.33V299.31a4.18,4.18,0,0,0-4.33-4.33H235.29V279h46q27.07,0,44.2-16.51t17.12-42.64q0-26.12-17.12-42.64t-44.2-16.51h-73a4.21,4.21,0,0,0-3.11,1.21A4.26,4.26,0,0,0,204,165v85.14H173.7a4.09,4.09,0,0,0-3.11,1.29,4.27,4.27,0,0,0-1.22,3v20.17A4.18,4.18,0,0,0,173.7,279H204v16H173.7a4.18,4.18,0,0,0-4.33,4.33v17.33A4.18,4.18,0,0,0,173.7,321Zm61.59-131.43H278.6q14.36,0,23.15,8.39t8.8,21.93q0,13.53-8.8,21.93t-23.15,8.39H235.29Z" transform="translate(-89.99 -89.99)"/></svg>